<?xml version="1.0" encoding="UTF-8"?>
<svg xmlns="http://www.w3.org/2000/svg" viewBox="0 0 4000 4147.23">
  <defs>
    <style>
      .cls-1 {
        stroke: #000;
        stroke-miterlimit: 10;
        stroke-width: 8px;
      }

      .cls-1, .cls-2 {
        fill: #fff;
      }
    </style>
  </defs>
  <rect class="cls-2" width="4000" height="4147.23"/>
  <g id="_レイヤー_1" data-name="レイヤー 1">
    <rect y="0" width="4025.44" height="4147.23"/>
    <polygon class="cls-1" points="1981.67 1258.27 1431.42 2211.63 881.16 1258.27 491.06 1258.27 1431.42 2885.35 2371.32 1258.27 1981.67 1258.27"/>
    <polygon class="cls-1" points="2015.66 2885.35 2565.91 1931.99 3116.17 2885.35 3506.26 2885.35 2565.91 1258.27 1626.01 2885.35 2015.66 2885.35"/>
    <polygon class="cls-1" points="3116.62 3949.64 2566.37 2996.28 2016.11 3949.64 1626.01 3949.64 2566.37 2322.57 3506.26 3949.64 3116.62 3949.64"/>
    <polygon class="cls-1" points="880.71 194.6 1430.96 1147.96 1981.22 194.6 2371.32 194.6 1430.96 1821.67 491.06 194.6 880.71 194.6"/>
    <polygon class="cls-1" points="-260.18 2885.35 290.07 1931.99 840.33 2885.35 1230.42 2885.35 290.07 1258.27 -649.83 2885.35 -260.18 2885.35"/>
    <polygon class="cls-1" points="840.78 3949.64 290.52 2996.28 -259.73 3949.64 -649.83 3949.64 290.52 2322.57 1230.42 3949.64 840.78 3949.64"/>
    <polygon class="cls-1" points="4251.34 1258.27 3701.09 2211.63 3150.83 1258.27 2760.73 1258.27 3701.09 2885.35 4640.99 1258.27 4251.34 1258.27"/>
    <polygon class="cls-1" points="3150.38 194.6 3700.63 1147.96 4250.89 194.6 4640.99 194.6 3700.63 1821.67 2760.73 194.6 3150.38 194.6"/>
  </g>
</svg>