<?xml version="1.0" encoding="UTF-8"?>
<svg id="_レイヤー_1" data-name="レイヤー 1" xmlns="http://www.w3.org/2000/svg" viewBox="0 0 1129.64 100.05">
  <defs>
    <style>
      .cls-1 {
        fill: #fff;
      }
    </style>
  </defs>
  <g>
    <path class="cls-1" d="M28.55,98.79H0V1.34h113.34v97.45h-29.39l-26.51-23.77h-2.32"/>
    <path class="cls-1" d="M158.84,98.79h-29.39V1.34h29.39v97.45Z"/>
    <path class="cls-1" d="M272.76,1.34l-38.18,52.8v44.65h-29.39v-44.09L166.3,1.34h106.45Z"/>
    <path class="cls-1" d="M278.48,98.79h-30.09L291.48,1.34h32.48l42.96,97.45h-30.09"/>
    <path class="cls-1" d="M447.73,1.34h29.32v97.45h-26.16l-50.55-54.28v54.28h-29.11V1.34h26.09"/>
    <path class="cls-1" d="M597.15,49.99c0,9.09-2.1,17.46-6.29,25.1-4.2,7.64-10.44,13.71-18.74,18.21s-18.4,6.75-30.3,6.75-22.24-2.34-30.59-7.03c-8.34-4.69-14.54-10.85-18.6-18.49-4.06-7.64-6.08-15.82-6.08-24.54s2.01-16.96,6.05-24.57c4.03-7.62,10.23-13.76,18.6-18.42,8.37-4.66,18.57-7,30.62-7,9,0,17.03,1.34,24.08,4.01,7.05,2.67,12.86,6.29,17.4,10.86,4.55,4.57,7.99,9.89,10.34,15.96,2.34,6.07,3.52,12.46,3.52,19.16Z"/>
  </g>
  <g>
    <path class="cls-1" d="M799.53,0l-42.76,100.05h-17.25l-25.65-58.22-26.3,58.22h-17.39L628.29,0h30.86l20.52,54.73L703.18,0h21.31l23.09,54.73L769.03,0h30.5Z"/>
    <path class="cls-1" d="M867.84,62.43c0,7.22-1.57,13.66-4.7,19.31-3.14,5.65-7.83,10.12-14.08,13.4-6.25,3.28-13.86,4.92-22.84,4.92s-16.59-1.64-22.84-4.92c-6.25-3.28-10.93-7.74-14.04-13.4-3.11-5.65-4.67-12.09-4.67-19.31,0-5.46.87-10.43,2.6-14.89,1.73-4.47,4.37-8.42,7.91-11.86,3.54-3.44,7.9-6.09,13.08-7.95,5.18-1.85,11.16-2.78,17.96-2.78s12.89.94,18.14,2.81c5.25,1.88,9.6,4.5,13.04,7.88,3.44,3.37,6.05,7.32,7.8,11.83,1.76,4.51,2.64,9.5,2.64,14.97ZM840.83,62.43c0-5.75-1.25-10.25-3.74-13.5-2.49-3.25-6.12-4.88-10.87-4.88s-8.3,1.63-10.8,4.88c-2.49,3.25-3.74,7.76-3.74,13.5s1.26,10.21,3.78,13.54c2.52,3.33,6.1,4.99,10.76,4.99s8.37-1.65,10.87-4.95c2.49-3.3,3.74-7.83,3.74-13.58Z"/>
    <path class="cls-1" d="M939.95,30.14l-9.48,25.73c-3.9-3.71-7.84-5.56-11.83-5.56-3.61,0-6.73,1.22-9.37,3.67-2.64,2.45-5.17,6.97-7.59,13.58v31.21h-25.66V26.23h25.66v17.53c1.61-4.32,4.47-8.54,8.55-12.65,4.09-4.11,8.88-6.16,14.4-6.16,2.9,0,5.43.43,7.59,1.28,2.16.86,4.74,2.16,7.73,3.92Z"/>
    <path class="cls-1" d="M1031.31,98.77h-32.57l-27.86-34.42v34.42h-25.94V0h25.94v57.94l25.44-31.71h30.79l-28.36,33.85,32.57,38.7Z"/>
    <path class="cls-1" d="M1091.02,77.61c0,6.65-2.43,12.06-7.3,16.21-4.87,4.16-12.1,6.24-21.7,6.24-5.37,0-10.14-.49-14.32-1.46-4.18-.97-8.74-2.36-13.68-4.17v-18.24c4.32,2.47,8.08,4.35,11.26,5.63,3.18,1.28,6.67,1.92,10.48,1.92,6.41,0,9.62-1.76,9.62-5.27,0-1.19-.46-2.24-1.39-3.17-.93-.93-2.54-1.97-4.85-3.14-2.31-1.16-5.38-2.55-9.23-4.17-4.75-2.09-8.79-4.89-12.11-8.41-3.33-3.52-4.99-7.81-4.99-12.9,0-3.61,1.11-7.08,3.31-10.4,2.21-3.32,5.55-6.04,10.01-8.16,4.47-2.11,9.86-3.17,16.18-3.17,1.52,0,3.46.11,5.81.32,2.35.21,5.32.77,8.91,1.67,3.59.9,7,2.19,10.23,3.85v17.74c-1.52-.9-2.79-1.66-3.81-2.28-1.02-.62-2.39-1.31-4.1-2.07-1.71-.76-3.72-1.44-6.02-2.03-2.31-.59-4.67-.89-7.09-.89-2.95,0-4.96.57-6.06,1.71-1.09,1.14-1.64,2.28-1.64,3.42s.57,2.29,1.71,3.31c1.14,1.02,3.68,2.29,7.63,3.81,5.7,2.19,10.26,4.43,13.68,6.73,3.42,2.31,5.85,4.83,7.3,7.59,1.45,2.76,2.17,6.01,2.17,9.76Z"/>
    <path class="cls-1" d="M1129.64,84.73c0,4.28-1.46,7.9-4.38,10.87-2.92,2.97-6.52,4.45-10.8,4.45s-7.86-1.5-10.9-4.49c-3.04-2.99-4.56-6.6-4.56-10.83s1.52-7.9,4.56-10.87c3.04-2.97,6.67-4.45,10.9-4.45,2.66,0,5.19.69,7.59,2.07,2.4,1.38,4.26,3.23,5.59,5.56,1.33,2.33,2,4.89,2,7.7Z"/>
  </g>
</svg>