<?xml version="1.0" encoding="UTF-8"?>
<svg id="_レイヤー_1" data-name="レイヤー 1" xmlns="http://www.w3.org/2000/svg" viewBox="0 0 1119.26 100.05">
  <defs>
    <style>
      .cls-1 {
        fill: #fff;
      }
    </style>
  </defs>
  <path class="cls-1" d="M28.55,98.79H0V1.34h113.34v97.45h-29.39l-26.51-23.77h-2.32"/>
  <path class="cls-1" d="M158.84,98.79h-29.39V1.34h29.39v97.45Z"/>
  <path class="cls-1" d="M272.76,1.34l-38.18,52.8v44.65h-29.39v-44.09L166.3,1.34h106.45Z"/>
  <path class="cls-1" d="M278.48,98.79h-30.09L291.48,1.34h32.48l42.96,97.45h-30.09"/>
  <path class="cls-1" d="M447.73,1.34h29.32v97.45h-26.16l-50.55-54.28v54.28h-29.11V1.34h26.09"/>
  <path class="cls-1" d="M597.15,49.99c0,9.09-2.1,17.46-6.29,25.1-4.2,7.64-10.44,13.71-18.74,18.21s-18.4,6.75-30.3,6.75-22.24-2.34-30.59-7.03c-8.34-4.69-14.54-10.85-18.6-18.49-4.06-7.64-6.08-15.82-6.08-24.54s2.01-16.96,6.05-24.57c4.03-7.62,10.23-13.76,18.6-18.42C519.56,2.33,529.77,0,541.81,0,550.81,0,558.84,1.34,565.9,4.01c7.05,2.67,12.86,6.29,17.4,10.86,4.55,4.57,7.99,9.89,10.34,15.96,2.34,6.07,3.52,12.46,3.52,19.16Z"/>
  <path class="cls-1" d="M703.27,70.45c0,6.09-1.56,11.37-4.68,15.82-3.12,4.45-7.46,7.86-13.04,10.23-5.58,2.37-11.98,3.55-19.2,3.55-2.02,0-4.49-.13-7.42-.39-2.93-.26-6.82-.97-11.67-2.14-4.85-1.17-9.9-2.91-15.15-5.2v-23.91c4.92,3.05,9.76,5.58,14.52,7.59,4.76,2.02,9.85,3.02,15.29,3.02,5.02,0,8.26-.83,9.74-2.5,1.48-1.66,2.21-3.22,2.21-4.68,0-2.62-1.27-4.84-3.8-6.64-2.53-1.8-6.21-3.67-11.04-5.59-5.34-2.25-10.03-4.7-14.06-7.35-4.03-2.65-7.32-5.96-9.88-9.95-2.56-3.98-3.83-8.69-3.83-14.13s1.29-10,3.87-14.24c2.58-4.24,6.51-7.63,11.81-10.16C652.25,1.27,658.72,0,666.36,0,671.8,0,676.82.53,681.44,1.58c4.62,1.05,8.43,2.24,11.43,3.55,3,1.31,5.06,2.34,6.19,3.09v22.85c-3.98-2.86-8.43-5.41-13.32-7.66-4.9-2.25-10.14-3.38-15.71-3.38-3.66,0-6.3.7-7.95,2.11-1.64,1.41-2.46,3.14-2.46,5.2,0,1.92.82,3.59,2.46,4.99,1.64,1.41,4.57,3.12,8.79,5.13,7.5,3.52,13.5,6.68,18,9.49s8.03,6.06,10.58,9.74c2.55,3.68,3.83,8.26,3.83,13.75Z"/>
  <path class="cls-1" d="M769.79,94.64c-2.63,1.27-6.25,2.49-10.86,3.66-4.62,1.17-9.04,1.76-13.25,1.76-18.24,0-27.35-8.91-27.35-26.72v-28.55h-11.46v-4.43l33.96-34.59h2.88v21.45h24.19v17.58h-24.19v22.92c0,2.67.16,4.83.49,6.47.33,1.64,1.25,3.01,2.78,4.11,1.52,1.1,3.83,1.65,6.93,1.65,4.03,0,9.33-1.69,15.89-5.06v19.76Z"/>
  <path class="cls-1" d="M856.28,98.79h-25.31v-10.2c-3.57,3.84-7.32,6.71-11.25,8.61-3.92,1.9-8.64,2.85-14.14,2.85-10.8,0-17.79-3.15-20.97-9.46-3.18-6.3-4.77-13.42-4.77-21.34V27.21h25.31v38.67c0,3.89.65,7.3,1.94,10.23,1.29,2.93,4.1,4.39,8.42,4.39,3.71,0,6.65-1.05,8.81-3.16s4.37-4.8,6.63-8.09V27.21h25.31v71.58Z"/>
  <path class="cls-1" d="M945.37,98.79h-25.38v-6.47c-2.67,2.25-5.5,4.1-8.47,5.55-2.98,1.45-7.09,2.18-12.34,2.18s-10.31-1.29-15.33-3.87c-5.02-2.58-9.14-6.6-12.38-12.06-3.23-5.46-4.85-12.34-4.85-20.64,0-6.51,1.22-12.62,3.66-18.32,2.44-5.7,6.26-10.32,11.46-13.89,5.2-3.56,11.58-5.34,19.12-5.34,4.69,0,8.48.52,11.39,1.55,2.91,1.03,5.48,2.34,7.73,3.94V1.34h25.38v97.45ZM919.98,76.01v-27.35c-2.95-1.64-5.26-2.81-6.93-3.52-1.66-.7-3.62-1.05-5.87-1.05-3.98,0-7.3,1.69-9.95,5.06-2.65,3.38-3.97,7.97-3.97,13.78,0,6.33,1.39,10.93,4.18,13.82,2.79,2.88,6.04,4.32,9.74,4.32,3.05,0,5.51-.48,7.38-1.44,1.87-.96,3.68-2.17,5.41-3.62Z"/>
  <path class="cls-1" d="M985.17,98.79h-25.38V27.21h25.38v71.58ZM983.13,10.69c0,2.95-1.05,5.46-3.16,7.52-2.11,2.06-4.62,3.09-7.52,3.09-1.97,0-3.76-.47-5.38-1.41-1.62-.94-2.89-2.21-3.83-3.83-.94-1.62-1.41-3.41-1.41-5.38,0-2.91,1.03-5.41,3.09-7.52C966.98,1.05,969.49,0,972.44,0s5.41,1.05,7.52,3.16,3.16,4.62,3.16,7.52Z"/>
  <path class="cls-1" d="M1078.76,62.93c0,7.13-1.55,13.48-4.64,19.05-3.09,5.58-7.72,9.98-13.89,13.22-6.16,3.23-13.68,4.85-22.54,4.85s-16.37-1.62-22.54-4.85c-6.16-3.23-10.78-7.64-13.85-13.22-3.07-5.58-4.61-11.93-4.61-19.05,0-5.39.85-10.29,2.57-14.7,1.71-4.41,4.31-8.31,7.8-11.71,3.49-3.4,7.79-6.01,12.9-7.84,5.11-1.83,11.01-2.74,17.72-2.74s12.71.93,17.89,2.78c5.18,1.85,9.47,4.44,12.87,7.77,3.4,3.33,5.96,7.22,7.7,11.67,1.73,4.45,2.6,9.38,2.6,14.77ZM1052.11,62.93c0-5.67-1.23-10.11-3.69-13.32-2.46-3.21-6.04-4.82-10.72-4.82s-8.19,1.61-10.65,4.82c-2.46,3.21-3.69,7.65-3.69,13.32s1.24,10.08,3.73,13.36c2.48,3.28,6.02,4.92,10.62,4.92s8.26-1.63,10.72-4.89c2.46-3.26,3.69-7.72,3.69-13.39Z"/>
  <path class="cls-1" d="M1119.26,84.94c0,4.22-1.44,7.79-4.32,10.72-2.88,2.93-6.43,4.39-10.65,4.39s-7.76-1.48-10.76-4.43c-3-2.95-4.5-6.51-4.5-10.69s1.5-7.79,4.5-10.72c3-2.93,6.58-4.39,10.76-4.39,2.62,0,5.12.68,7.49,2.04,2.37,1.36,4.21,3.19,5.52,5.48,1.31,2.3,1.97,4.83,1.97,7.59Z"/>
</svg>