<?xml version="1.0" encoding="UTF-8"?>
<svg id="_レイヤー_1" data-name="レイヤー 1" xmlns="http://www.w3.org/2000/svg" viewBox="0 0 597.15 98.72">
  <path d="M28.55,97.45H0V0h113.34v97.45h-29.39l-26.51-23.77h-2.32"/>
  <path d="M158.84,97.45h-29.39V0h29.39v97.45Z"/>
  <path d="M272.76,0l-38.18,52.8v44.65h-29.39v-44.09L166.3,0h106.45Z"/>
  <path d="M278.48,97.45h-30.09L291.48,0h32.48l42.96,97.45h-30.09"/>
  <path d="M447.73,0h29.32v97.45h-26.16l-50.55-54.28v54.28h-29.11V0h26.09"/>
  <path d="M597.15,48.66c0,9.09-2.1,17.46-6.29,25.1-4.2,7.64-10.44,13.71-18.74,18.21s-18.4,6.75-30.3,6.75-22.24-2.34-30.59-7.03c-8.34-4.69-14.54-10.85-18.6-18.49-4.06-7.64-6.08-15.82-6.08-24.54s2.01-16.96,6.05-24.57c4.03-7.62,10.23-13.76,18.6-18.42,8.37-4.66,18.57-7,30.62-7,9,0,17.03,1.34,24.08,4.01,7.05,2.67,12.86,6.29,17.4,10.86,4.55,4.57,7.99,9.89,10.34,15.96,2.34,6.07,3.52,12.46,3.52,19.16Z"/>
</svg>